<svg width="55" height="48" viewBox="0 0 55 48" fill="none" xmlns="http://www.w3.org/2000/svg">
<mask id="mask0_317_801" style="mask-type:luminance" maskUnits="userSpaceOnUse" x="0" y="0" width="55" height="48">
<path d="M54.7346 0.665558H0.913208V47.2179H54.7346V0.665558Z" fill="white"/>
</mask>
<g mask="url(#mask0_317_801)">
<path d="M1.33368 45.0357C1.33368 30.3977 1.33368 15.7596 1.33368 1.02925C13.5362 1.02925 25.7389 1.02925 38.1387 1.19969C38.3358 13.0852 38.3358 24.8003 38.3358 36.7103C41.2753 36.7103 43.9011 36.7103 46.7335 36.7103C46.3829 40.5224 48.2573 44.5462 43.7086 47.2722C43.6738 47.2931 43.768 47.4749 43.8021 47.5816C30.7584 47.5816 17.7148 47.5816 4.54919 47.4615C3.39604 46.5729 2.36486 45.8043 1.33368 45.0357ZM34.1311 12.1218C34.1311 9.67015 34.1311 7.21841 34.1311 4.79876C24.4159 4.79876 15.0734 4.79876 5.66605 4.79876C5.61538 5.21656 5.54899 5.50928 5.54882 5.80203C5.5421 17.4841 5.5343 29.1662 5.55914 40.8482C5.5605 41.4889 5.74593 42.1601 6.01169 42.7623C6.4428 43.7392 8.55045 44.0003 9.08196 43.1076C9.50686 42.3939 9.65294 41.5111 9.71605 40.6915C9.81585 39.3956 9.74263 38.0897 9.74263 36.6045C18.0433 36.6045 25.9876 36.6045 34.1311 36.6045C34.1311 28.4388 34.1311 20.4622 34.1311 12.1218ZM27.1931 40.3077C22.8187 40.3077 18.444 40.3077 14.1046 40.3077C14.1046 41.673 14.1046 42.731 14.1046 43.9348C22.7089 43.9348 31.1597 43.9888 39.6085 43.9003C41.9938 43.8753 42.7446 42.7008 42.2313 40.3077C37.3831 40.3077 32.4983 40.3077 27.1931 40.3077Z" fill="#0950A2"/>
<path d="M55.155 26.6808C52.7564 28.3017 49.8822 29.489 51.0586 32.8987C49.5609 32.8987 48.3372 32.8987 46.9659 32.8987C46.8989 32.5466 46.7132 32.1381 46.7672 31.7547C46.9913 30.1622 46.3993 29.1102 44.6932 28.2527C43.1698 27.4871 42.5005 26.0962 42.5137 24.4345C42.5752 16.7467 42.5407 9.05829 42.5406 1.19969C46.7272 1.02925 50.9136 1.02925 55.155 1.02925C55.155 9.52289 55.155 18.0167 55.155 26.6808ZM46.7454 17.9408C46.7813 19.8726 46.7056 21.8132 46.9064 23.732C46.99 24.531 47.289 25.4349 48.8203 25.4378C50.319 25.4406 50.7571 24.6035 50.781 23.7805C50.894 19.8818 50.8314 15.9794 50.8314 12.0607C49.4017 12.0607 48.1801 12.0607 46.7454 12.0607C46.7454 13.9775 46.7454 15.7779 46.7454 17.9408ZM50.9424 5.65323C49.9758 3.59724 48.2373 5.1268 46.9012 4.69191C46.9012 6.04983 46.9012 7.10281 46.9012 8.19787C48.2746 8.19787 49.4908 8.19787 50.9481 8.19787C50.9481 7.39345 50.9481 6.69069 50.9424 5.65323Z" fill="#DBBA6B"/>
<path d="M29.6624 15.376C25.8366 15.4883 22.1563 15.4883 18.3152 15.4883C18.3152 14.3765 18.3152 13.3217 18.3152 12.1026C22.0451 12.1026 25.8274 12.1026 29.8077 12.1026C29.8077 13.1503 29.8077 14.2071 29.6624 15.376Z" fill="#DBBA6B"/>
<path d="M27.34 19.2138C28.2286 19.2139 28.9152 19.2139 29.7617 19.2139C29.7617 20.4101 29.7617 21.4638 29.7617 22.6849C26.0387 22.6849 22.2587 22.6849 18.3148 22.6849C18.3148 21.6497 18.3148 20.5954 18.3148 19.2138C21.2155 19.2138 24.1768 19.2138 27.34 19.2138Z" fill="#DBBA6B"/>
<path d="M23.2066 30.1244C21.4809 30.1244 19.9631 30.1244 18.3008 30.1244C18.3008 28.8999 18.3008 27.845 18.3008 26.6381C22.0667 26.6381 25.8485 26.6381 29.7789 26.6381C29.7789 27.7128 29.7789 28.7676 29.7789 30.1244C27.6735 30.1244 25.544 30.1244 23.2066 30.1244Z" fill="#DBBA6B"/>
<path d="M9.74824 14.4224C9.74536 13.5524 9.74536 12.8496 9.74536 12.0452C11.2033 12.0452 12.4192 12.0452 13.7922 12.0452C13.7922 13.1402 13.7922 14.1932 13.7922 15.5511C12.4562 15.1162 10.7178 16.6457 9.74824 14.4224Z" fill="#DBBA6B"/>
<path d="M13.9467 20.7004C13.9158 21.4525 13.8842 22.0394 13.8467 22.735C12.5139 22.735 11.2965 22.735 9.91071 22.735C9.91071 21.6257 9.91071 20.5311 9.91071 19.1156C11.2963 19.81 13.4678 17.8891 13.9467 20.7004Z" fill="#DBBA6B"/>
<path d="M11.0799 30.1202C10.5063 29.6856 9.93103 29.295 9.79302 28.8111C9.60361 28.1471 9.74564 27.4123 9.74564 26.6055C10.5681 26.558 11.1727 26.5093 11.7784 26.492C12.3928 26.4746 13.0082 26.4881 13.7849 26.4881C13.7849 27.72 13.7849 28.8144 13.7849 30.1227C12.8979 30.1227 12.0856 30.1227 11.0799 30.1202Z" fill="#DBBA6B"/>
</g>
</svg>
