<svg width="125" height="138" viewBox="0 0 125 138" fill="none" xmlns="http://www.w3.org/2000/svg">
<circle cx="62.1125" cy="61.6125" r="12.4375" stroke="#DC3545" stroke-width="10"/>
<path fill-rule="evenodd" clip-rule="evenodd" d="M84.1628 112.025C82.9594 109.941 83.8649 107.283 85.9888 106.15C101.763 97.7407 112.5 81.1242 112.5 62C112.5 34.3858 90.1142 12 62.5 12C34.8858 12 12.5 34.3858 12.5 62C12.5 81.3432 23.484 98.1209 39.555 106.436C41.7121 107.552 42.6459 110.234 41.4315 112.338L39.5806 115.544C38.5901 117.259 36.5087 118.34 34.7379 117.452C14.4351 107.268 0.5 86.2612 0.5 62C0.5 27.7583 28.2583 0 62.5 0C96.7417 0 124.5 27.7583 124.5 62C124.5 86.1016 110.748 106.991 90.662 117.25C89.0364 118.08 87.1071 117.125 86.1944 115.544L84.1628 112.025Z" fill="#0950A2"/>
<path fill-rule="evenodd" clip-rule="evenodd" d="M74.1458 94.675C73.668 93.8475 73.9891 92.7314 74.8682 92.3568C86.5123 87.3944 94.675 75.8442 94.675 62.3875C94.675 44.4037 80.0963 29.825 62.1125 29.825C44.1287 29.825 29.55 44.4037 29.55 62.3875C29.55 76.4886 38.5132 88.4963 51.0531 93.0238C51.712 93.2617 51.9794 94.0683 51.6292 94.675L47.9302 101.082C46.9479 102.783 44.8657 103.537 43.0894 102.697C27.9935 95.5606 17.55 80.1937 17.55 62.3875C17.55 37.7763 37.5013 17.825 62.1125 17.825C86.7237 17.825 106.675 37.7763 106.675 62.3875C106.675 79.6728 96.8336 94.6594 82.4483 102.05C80.6594 102.969 78.5063 102.228 77.5007 100.486L74.1458 94.675Z" fill="#0950A2"/>
<path d="M52.4223 108.316C57.0814 100.877 67.9186 100.877 72.5777 108.316C77.5375 116.236 71.8445 126.519 62.5 126.519C53.1555 126.519 47.4625 116.236 52.4223 108.316Z" fill="#0A50A2"/>
</svg>
