<svg width="33" height="33" viewBox="0 0 33 33" fill="none" xmlns="http://www.w3.org/2000/svg">
<circle cx="16.5" cy="16.5" r="16.5" fill="#FFCDD2"/>
<circle cx="16.5" cy="16.5" r="16.5" fill="#FFE8B0"/>
<path fill-rule="evenodd" clip-rule="evenodd" d="M15 23.6511L15 9.34886C15.663 9.12224 16.3691 9 17.1016 9C20.9409 9 24.0532 12.3579 24.0532 16.5C24.0532 20.6421 20.9409 24 17.1016 24C16.3691 24 15.663 23.8778 15 23.6511Z" fill="#DBBA6B"/>
<path d="M9 16.5C9 15.1193 10.1193 14 11.5 14H17.5C18.8807 14 20 15.1193 20 16.5C20 17.8807 18.8807 19 17.5 19H11.5C10.1193 19 9 17.8807 9 16.5Z" fill="#DBBA6B"/>
<path d="M19.9333 15.7C20.4667 16.1 20.4667 16.9 19.9333 17.3L16.6 19.8C15.9408 20.2944 15 19.824 15 19V16.5V14C15 13.176 15.9408 12.7056 16.6 13.2L19.9333 15.7Z" fill="#FFE8B0"/>
</svg>
