<svg width="45" height="46" viewBox="0 0 45 46" fill="none" xmlns="http://www.w3.org/2000/svg">
<mask id="mask0_317_820" style="mask-type:luminance" maskUnits="userSpaceOnUse" x="0" y="0" width="45" height="46">
<path d="M45 0H0V46H45V0Z" fill="white"/>
</mask>
<g mask="url(#mask0_317_820)">
<path d="M3.66141 46.1944C2.46468 46.3594 1.01772 46.7769 0.47581 46.2401C-0.0494878 45.7196 0.352145 44.2182 0.352087 43.1477C0.351362 29.4796 0.382371 15.8112 0.308758 2.14354C0.300493 0.608769 0.645077 0.0491211 2.28539 0.359384C3.47631 1.26967 2.41724 2.17639 2.44875 3.08857C2.57021 6.60385 2.29723 10.1252 2.53705 13.6429C2.53805 13.6576 2.70043 14.0286 2.45751 14.1388C2.53739 14.0203 2.26025 13.7771 2.58907 13.7457C2.32465 10.9291 2.55328 8.10355 2.41848 5.28865C2.39872 4.87595 2.45091 4.40092 2.45735 4.0254C2.5013 1.46863 3.27413 0.749247 6.37889 0.936669C13.6235 1.37399 20.8734 0.813404 28.121 1.20538C29.9183 1.30259 31.7791 1.12047 33.6157 1.16898C35.6379 1.22239 36.0686 1.56941 36.2122 3.54914C36.4118 6.30202 36.1536 9.05497 36.1913 11.8097C36.2367 15.1391 36.2861 18.471 36.1371 21.8009C36.1339 21.874 36.3914 21.9604 36.113 22.0329C36.3058 21.9677 36.0915 21.9826 36.095 21.9457C36.3545 19.1378 36.0658 16.3224 36.1802 13.5191C36.2689 11.3454 36.1771 9.17594 36.2146 7.00578C36.2375 5.67749 36.5147 4.95947 37.8978 4.92904C39.3466 4.89718 39.9109 5.51055 40.2945 6.89882C40.8606 8.94762 40.504 11.0093 40.489 13.0293C40.4267 21.4706 40.3828 29.9098 40.5207 38.3509C40.5329 39.0945 40.4135 39.8849 40.2808 40.6517C40.0095 42.2172 38.4899 43.1794 37.0365 42.7103C36.3277 42.4816 36.3995 42.0989 36.3602 41.4799C36.126 37.7834 36.1184 34.0926 36.3478 30.3978C36.3515 30.3379 36.1664 30.2659 36.0936 30.2013C36.1355 30.3051 36.2904 30.2436 36.2863 30.4843C36.2184 34.4174 36.0733 38.352 36.3653 42.2833C36.4013 42.7693 36.5615 43.2136 36.6703 43.6767C37.0324 45.2169 36.6935 45.756 35.1308 45.6946C30.3462 45.5063 25.5584 45.6023 20.7763 45.6076C15.9185 45.613 11.0575 45.5105 6.20009 45.6474C3.99724 45.7095 2.48558 43.5881 2.4592 41.8644C2.38665 37.123 2.59674 32.381 2.36654 27.6382C2.29421 26.148 2.64099 24.635 2.23578 23.1442C2.64218 23.0546 2.45716 22.759 2.4429 22.5229C2.33716 22.7188 2.55392 22.8377 2.55128 23.0174C2.50167 26.3871 2.54887 29.7569 2.58356 33.1236C2.61434 36.1116 2.5037 39.1165 2.57093 42.1183C2.58968 42.9549 2.79821 43.6221 3.25511 44.2736C3.61715 44.7897 4.15832 45.2698 3.66141 46.1944Z" fill="white"/>
<path d="M3.6804 46.3594C3.5452 46.3076 3.60758 46.2167 3.59969 46.2098C1.2133 44.1262 1.77115 41.2921 1.76314 38.6161C1.74594 32.8663 1.73008 27.1162 1.79168 21.367C1.79975 20.6144 1.18643 19.1838 2.41585 19.178C3.88889 19.171 3.11376 20.6826 3.12239 21.4539C3.19536 27.9816 3.16033 34.5104 3.16603 41.0388C3.16832 43.6773 4.33907 44.9167 6.85131 44.9188C16.0503 44.9261 25.2492 44.9218 34.4481 44.9218C34.9113 44.9218 35.3745 44.9218 35.5174 44.9218C35.5174 39.1592 35.5187 33.5113 35.5155 27.8636C35.5151 27.3055 35.6695 26.9277 36.3134 26.9899C37.0294 27.059 36.9012 27.63 36.9028 28.0731C36.9166 32.1458 36.8895 36.2189 36.9387 40.2912C36.9463 40.9237 36.4232 42.0057 37.7544 42.028C38.8568 42.0466 39.4236 41.3297 39.6969 40.344C39.7894 40.01 39.7258 39.6295 39.7258 39.2702C39.7266 28.9086 39.7264 18.547 39.7261 8.1853C39.7261 7.88585 39.7353 7.58555 39.7172 7.2871C39.6494 6.16973 39.0082 5.79015 37.9731 5.73922C36.7134 5.67724 36.9191 6.5485 36.9182 7.29637C36.9116 12.6868 36.9161 18.0773 36.9106 23.4677C36.9101 23.9446 36.9092 24.4304 36.8221 24.8951C36.7697 25.1751 36.5365 25.4273 36.1991 25.4114C35.8756 25.3963 35.6383 25.1671 35.5908 24.872C35.5153 24.4036 35.5113 23.92 35.511 23.4427C35.5065 17.154 35.5124 10.8651 35.5054 4.57623C35.5027 2.0697 35.23 1.79798 32.8002 1.79755C23.777 1.79595 14.7538 1.79517 5.73067 1.79813C3.28834 1.79892 3.16724 1.92855 3.16492 4.4815C3.16144 8.31471 3.16988 12.1479 3.1562 15.9811C3.15399 16.6013 3.32654 17.5099 2.39126 17.4647C1.63604 17.4281 1.76355 16.5937 1.7627 16.014C1.75622 11.5818 1.78849 7.14929 1.73367 2.71784C1.72286 1.84292 2.12002 1.26314 2.50581 0.497343C13.6011 0.359375 24.7412 0.359375 36.0462 0.359375C37.7063 1.44756 39.1308 2.69397 40.4502 3.92895C42.2154 5.58104 44.234 7.41572 44.5811 10.0637C44.7578 11.4118 44.7425 12.8627 44.5323 14.3021C44.3672 15.4329 43.8961 15.2813 43.1751 15.3816C42.2489 15.5104 41.9255 15.1089 41.8869 14.2768C41.8637 13.775 41.8502 13.272 41.8903 12.7701C41.6179 22.8251 42.1302 32.8968 41.4467 42.9431C41.1294 43.1518 41.1612 42.6797 41.2951 42.8763C41.3323 42.9309 41.3768 42.9113 41.414 42.8117C42.1812 40.7485 41.8341 38.5889 41.8367 36.4829C41.8445 30.1554 41.8607 23.8272 41.8236 17.4992C41.8185 16.6373 41.776 15.4422 43.3624 15.5703C44.1772 15.6362 44.5299 15.7013 44.5823 16.6281C44.7323 19.2775 44.6055 21.9228 44.6037 24.5697C44.5995 30.5721 44.6904 36.573 44.5839 42.5775C44.5501 44.4784 43.8808 45.4167 42.3072 46.2507C29.4067 46.3594 16.6259 46.3594 3.6804 46.3594Z" fill="#0950A2"/>
<path d="M42.3602 46.3594C42.158 46.3076 42.0958 46.2167 42.1037 46.2098C44.4897 44.1272 43.9337 41.2941 43.9399 38.6191C43.956 31.7344 43.9608 24.8494 43.9165 17.965C43.9128 17.3909 44.4381 16.2967 43.3198 16.285C42.3242 16.2747 42.5486 17.2992 42.5475 17.973C42.5349 25.5762 42.5323 33.1795 42.5449 40.7826C42.5473 42.2146 42.2995 43.5426 41.0681 44.3921C39.8055 45.263 38.7037 45.0432 37.8285 43.6446C40.5647 43.2561 41.1322 42.5857 41.1325 39.8301C41.1333 30.5506 41.1328 21.2711 41.1328 11.9916C41.1328 11.2891 41.1328 10.5866 41.1328 9.79758C42.7129 10.0672 42.4261 11.1767 42.5698 12.1393C42.6989 13.0042 41.9012 14.6104 43.2737 14.5776C44.6146 14.5457 43.7946 12.946 43.9146 12.065C44.1798 10.1175 43.9723 8.32993 41.5768 7.87639C41.1029 7.78666 41.1852 7.37034 41.1371 7.02846C40.8158 4.74439 40.3428 4.19535 38.1248 3.98525C37.2558 3.90293 36.8066 3.71579 36.9075 2.75287C36.9952 1.91705 36.4519 1.30561 36.1606 0.492397C38.9567 0.359372 41.7028 0.386211 44.4478 0.34068C45.1424 0.32916 45.377 0.409889 45.3752 1.22748C45.3428 15.9778 45.3435 30.7282 45.3739 45.4785C45.3756 46.2716 45.1851 46.46 44.4589 46.3749C43.8246 46.3005 43.1754 46.3594 42.3602 46.3594Z" fill="white"/>
<path d="M26.0156 20.1253C19.4098 20.1253 12.9797 20.1335 6.54976 20.1133C5.84493 20.1111 4.81056 20.441 4.6574 19.3662C4.48483 18.1552 4.30762 16.855 4.81247 15.6826C5.00008 15.2468 5.67333 15.4615 6.12507 15.4611C14.9518 15.4514 23.7785 15.47 32.605 15.4339C33.7101 15.4293 34.1267 15.7172 34.1299 16.926C34.1381 20.1106 34.1833 20.1241 31.1015 20.1252C29.4648 20.1259 27.8281 20.1253 26.0156 20.1253Z" fill="#0A50A2"/>
<path d="M7.41238 37.3748C6.7143 37.3732 6.18503 37.3379 5.66125 37.3778C4.80529 37.4429 4.55932 37.0295 4.56339 36.2086C4.58622 31.6013 4.59448 26.9937 4.55845 22.3866C4.55072 21.3986 4.97585 21.1889 5.82782 21.1939C10.1593 21.2195 14.4912 21.2271 18.8224 21.1899C19.9262 21.1804 20.4145 21.5469 20.4038 22.7368C20.3646 27.1045 20.3646 31.4729 20.4036 35.8406C20.4142 37.0299 19.9265 37.3996 18.8223 37.3881C15.0764 37.349 11.3299 37.3742 7.41238 37.3748Z" fill="#0950A2"/>
<path d="M11.2503 43.125C9.26395 43.1239 7.45335 43.1271 5.64278 43.1189C5.12548 43.1166 4.5356 43.2003 4.59131 42.3482C4.63352 41.7027 4.95507 41.3684 5.58115 41.3452C5.98954 41.3301 6.39857 41.3289 6.80731 41.3289C13.6408 41.328 20.4744 41.3277 27.3079 41.3296C27.7747 41.3297 28.2453 41.3166 28.7076 41.3692C29.2592 41.4319 29.4797 41.8161 29.5077 42.3614C29.5434 43.0572 29.0999 43.1159 28.5974 43.1175C28.1885 43.1189 27.7797 43.1245 27.3709 43.1245C22.0559 43.1251 16.741 43.125 11.2503 43.125Z" fill="#0950A2"/>
<path d="M22.8658 6.05056C23.2895 7.16444 23.6895 8.14043 24.1159 9.18093C24.9125 8.41771 24.9267 7.30349 25.2714 6.36297C25.517 5.69262 25.7977 5.25502 26.4956 5.49153C27.1054 5.69816 27.1858 6.31744 27.0051 6.84795C26.3617 8.73676 25.6585 10.6042 24.9841 12.4821C24.8063 12.977 24.5202 13.3213 23.9608 13.2534C23.4866 13.196 23.3291 12.8385 23.196 12.4059C22.8925 11.4182 22.5309 10.4491 22.1526 9.35606C21.2762 10.3455 21.2989 11.4856 20.8117 12.4053C20.5778 12.8469 20.3942 13.2885 19.8316 13.2564C19.2854 13.2252 19.111 12.8396 18.9551 12.3248C18.4272 10.5815 17.7922 8.87215 17.259 7.13035C17.0847 6.56088 16.7443 5.75789 17.5871 5.4749C18.4437 5.18723 18.6147 6.07596 18.869 6.62451C19.249 7.44392 19.5292 8.31171 19.982 9.50071C20.4298 8.20267 20.7374 7.21405 21.112 6.25276C21.4957 5.26854 22.0714 4.99302 22.8658 6.05056Z" fill="#0950A2"/>
<path d="M11.9533 38.453C15.8766 38.4535 19.6243 38.4498 23.3719 38.4581C24.0621 38.4596 24.9357 38.3457 24.8909 39.417C24.8523 40.3385 24.0543 40.2459 23.4167 40.2462C17.561 40.2499 11.7054 40.2488 5.8497 40.2471C5.19956 40.2469 4.5329 40.3315 4.57368 39.2842C4.61066 38.3342 5.24051 38.4637 5.8048 38.4602C7.79565 38.4477 9.78662 38.4539 11.9533 38.453Z" fill="#0950A2"/>
<path d="M8.59115 8.95312C9.56969 8.79623 9.14965 8.10468 9.00008 7.69865C8.80023 7.15613 8.68463 6.66078 8.94665 6.16247C9.12158 5.82976 9.24083 5.32854 9.80436 5.44466C10.2685 5.54032 10.5182 5.85253 10.5209 6.31781C10.5326 8.35123 10.5344 10.3849 10.5167 12.4182C10.5126 12.8876 10.2261 13.192 9.7646 13.2569C9.28946 13.3237 9.04935 13.0065 8.80242 12.6386C8.0916 11.5797 7.5445 10.3947 6.3228 9.21611C6.3228 10.3719 6.31939 11.2252 6.32408 12.0785C6.32688 12.5857 6.24284 13.1454 5.68138 13.172C4.9744 13.2053 4.92929 12.5737 4.92807 12.0177C4.92396 10.1634 4.9141 8.30882 4.93512 6.45468C4.93936 6.08055 4.77086 5.56099 5.35884 5.43523C5.87048 5.32582 6.17887 5.53417 6.47768 6.01995C7.0901 7.0156 7.82448 7.93287 8.59115 8.95312Z" fill="#0950A2"/>
<path d="M33.6636 10.259C33.9918 11.8708 33.0966 12.6326 31.9698 13.1053C30.7869 13.6013 29.7009 13.1428 28.7856 12.3273C28.4791 12.0541 27.9097 11.7574 28.3374 11.1706C28.7164 10.6506 29.2518 10.7058 29.7609 10.9261C30.0742 11.0617 30.3313 11.3587 30.6501 11.4502C31.1211 11.5852 31.6464 11.5115 31.8531 10.993C32.094 10.3886 31.4359 10.3856 31.1541 10.1837C30.7317 9.88096 30.2448 9.66126 29.7651 9.45528C28.8323 9.05472 28.4252 8.28543 28.5218 7.33621C28.6277 6.29627 29.3 5.59523 30.3143 5.43703C31.3588 5.27415 32.4487 5.26776 33.2115 6.20239C33.3899 6.42105 33.3892 6.90833 33.2949 7.21547C33.1668 7.63215 32.7025 7.59729 32.3926 7.49447C31.7257 7.27324 31.0841 7.01014 30.2732 7.40484C31.0915 8.73328 33.2167 8.37875 33.6636 10.259Z" fill="#0950A2"/>
<path d="M11.8257 6.05225C12.8846 4.86721 14.0871 5.51209 15.1821 5.49113C15.6084 5.48297 15.8438 5.95229 15.7626 6.42923C15.6823 6.89965 15.3564 7.0778 14.9108 7.18288C14.3728 7.30977 13.4625 6.77649 13.4059 7.85863C13.3471 8.98376 14.2708 8.53224 14.8145 8.62224C15.2527 8.69475 15.6855 8.81403 15.7079 9.29021C15.7366 9.89834 15.2422 9.99311 14.7457 10.0667C14.2421 10.1413 13.4403 9.74575 13.4003 10.7212C13.354 11.8514 14.2576 11.4165 14.803 11.4978C15.4085 11.5881 15.8248 11.8303 15.7626 12.5041C15.7097 13.0776 15.2879 13.2918 14.7685 13.2842C12.2196 13.2467 11.502 13.8843 11.5956 10.4653C11.6346 9.03724 11.6862 7.60954 11.8257 6.05225Z" fill="#0950A2"/>
<path d="M31.9035 35.5788C32.533 35.6041 33.0125 35.5636 33.4577 35.6713C34.0038 35.8033 34.1003 36.2876 34.0692 36.8037C34.0395 37.2976 33.6874 37.3564 33.331 37.3571C29.7142 37.3647 26.0974 37.3662 22.4805 37.3589C21.8704 37.3578 21.4498 37.056 21.497 36.389C21.5462 35.6949 22.073 35.5841 22.6374 35.5839C25.671 35.5829 28.7046 35.5806 31.9035 35.5788Z" fill="#0950A2"/>
<path d="M27.0727 32.7031C29.0556 32.7038 30.8634 32.7036 32.671 32.7057C33.3333 32.7065 34.0606 32.7111 34.0407 33.6419C34.0237 34.438 33.3825 34.4983 32.7653 34.4978C29.4414 34.4952 26.1175 34.4954 22.7936 34.4976C22.1799 34.498 21.5314 34.4484 21.5128 33.6506C21.4914 32.7334 22.1984 32.7007 22.8737 32.7034C24.2149 32.7086 25.5562 32.7038 27.0727 32.7031Z" fill="#0950A2"/>
<path d="M26.0799 21.2034C28.4576 21.2041 30.6685 21.1955 32.8792 21.2122C33.4202 21.2162 34.1346 21.0355 34.0759 22.0111C34.0295 22.7828 33.5318 22.9908 32.8811 22.9918C30.3794 22.9955 27.8777 22.9949 25.3761 22.999C24.6283 23.0001 23.9099 22.9245 23.9409 21.9096C23.9756 20.7807 24.8698 21.361 25.3913 21.2112C25.5531 21.1647 25.7384 21.2036 26.0799 21.2034Z" fill="#0950A2"/>
<path d="M28.9051 31.5498C26.7733 31.6028 24.7904 31.6136 22.8075 31.6213C22.2054 31.6236 21.5406 31.6029 21.5087 30.7975C21.4722 29.8777 22.1766 29.8291 22.8531 29.83C24.6613 29.8325 26.4703 29.7982 28.2774 29.8452C29.4939 29.8767 29.9588 30.3845 28.9051 31.5498Z" fill="#0950A2"/>
<path d="M28.5473 40.2501C27.575 40.0474 26.1569 40.8006 26.1305 39.3761C26.1033 37.9146 27.5269 38.5285 28.3383 38.4796C29.8477 38.3887 31.3664 38.457 32.8812 38.4588C33.527 38.4596 34.0884 38.628 34.0414 39.4261C34.0013 40.1051 33.4799 40.2452 32.9075 40.2447C31.5092 40.2438 30.1109 40.2479 28.5473 40.2501Z" fill="#0950A2"/>
<path d="M32.8599 26.9584C33.6996 26.9937 34.1731 27.2887 34.0234 28.0541C33.8952 28.7107 33.3294 28.7491 32.7835 28.7476C30.9839 28.7429 29.1834 28.7075 27.3856 28.7639C26.568 28.7896 26.1406 28.3789 26.1335 27.6765C26.1264 26.9836 26.7687 26.9586 27.3042 26.958C29.1037 26.9557 30.9031 26.956 32.8599 26.9584Z" fill="#0950A2"/>
<path d="M26.277 25.8743C24.9494 25.8722 23.7853 25.8691 22.621 25.8683C22.0489 25.8679 21.5286 25.7224 21.5013 25.0393C21.4696 24.2452 22.0327 24.0832 22.6768 24.0833C24.0738 24.0835 25.4708 24.0715 26.8678 24.0835C27.55 24.0894 28.4251 23.954 28.4082 25.0096C28.3936 25.917 27.6079 25.8589 26.9643 25.872C26.7897 25.8756 26.615 25.8736 26.277 25.8743Z" fill="#0950A2"/>
<path d="M31.661 24.0786C32.1071 24.0793 32.3983 24.0796 32.6895 24.0807C33.3556 24.0832 34.0746 24.1009 34.0398 25.0325C34.0101 25.8289 33.3628 25.8752 32.7522 25.8722C32.1116 25.8692 31.4709 25.871 30.8303 25.8707C30.2148 25.8706 29.5848 25.8028 29.5817 24.9941C29.5786 24.208 30.1698 24.0704 30.8071 24.0819C31.04 24.0861 31.273 24.0801 31.661 24.0786Z" fill="#0950A2"/>
<path d="M22.6176 28.7417C21.8865 28.6774 21.4262 28.4458 21.5027 27.7554C21.5776 27.0789 22.0902 26.9515 22.6581 26.9578C23.0071 26.9618 23.3562 26.9603 23.7052 26.9569C24.3427 26.9507 24.9216 27.0895 24.9074 27.8855C24.8952 28.5584 24.3976 28.7471 23.8122 28.7434C23.4632 28.7413 23.1141 28.7451 22.6176 28.7417Z" fill="#0950A2"/>
<path d="M31.7178 29.8416C31.9275 29.833 31.9866 29.8233 32.0425 29.8329C32.8034 29.963 34.089 29.4149 33.9979 30.8016C33.9125 32.1009 32.6562 31.4992 31.8842 31.6052C31.5002 31.6579 31.0178 31.6472 30.9802 31.0651C30.9482 30.5674 30.7735 29.9513 31.7178 29.8416Z" fill="#0950A2"/>
<path d="M22.8516 16.8905C25.7175 16.8913 28.4079 16.8803 31.0977 16.9042C31.5654 16.9083 32.2434 16.6771 32.3014 17.5275C32.3688 18.5165 31.618 18.3171 31.0834 18.3179C23.1299 18.3297 15.1764 18.3302 7.22288 18.3151C6.75587 18.3142 6.07723 18.542 6.01904 17.6917C5.95139 16.7027 6.70178 16.9026 7.23664 16.9011C12.383 16.8865 17.5294 16.8913 22.8516 16.8905Z" fill="#DBBA6B"/>
<path d="M18.6327 24.8632C18.6324 28.0807 18.5932 31.1259 18.6521 34.169C18.6734 35.2657 18.3179 35.6162 17.2506 35.598C13.923 35.5411 10.5935 35.5478 7.26554 35.5942C6.27423 35.6081 5.94794 35.2569 5.96159 34.2529C6.00702 30.9107 6.00329 27.5672 5.96486 24.2249C5.95405 23.2854 6.28919 22.9801 7.18927 22.9898C10.5758 23.026 13.9642 23.0583 17.3493 22.9769C18.7313 22.9437 18.6739 23.7551 18.6327 24.8632Z" fill="#DBBA6B"/>
</g>
</svg>
