<svg width="56" height="73" viewBox="0 0 56 73" fill="none" xmlns="http://www.w3.org/2000/svg">
<path d="M38.2041 47.2447C37.8062 48.0073 37.6176 49.0786 36.9787 49.4858C28.4709 54.9095 15.5741 51.4028 13.2452 40.2371C11.4776 31.7624 15.3798 24.4181 24.7669 22.2579C35.1269 19.8737 43.8006 27.0373 43.8402 36.4158C43.8542 39.7275 43.4094 42.8194 41.252 45.466C40.8559 45.952 40.035 46.1125 39.2007 46.2565C39.1288 45.1654 39.0297 44.1241 39.4438 43.3363C41.5987 39.2363 42.0988 35.1806 39.5414 31.0866C39.5313 31.1046 39.5681 31.1247 39.5683 30.9969C39.4159 30.6711 39.2633 30.4731 39.0767 30.1388C38.6543 29.5127 38.3129 28.9784 37.8702 28.5403C34.1072 24.8153 29.5942 23.5301 24.468 25.1449C19.3358 26.7615 16.3079 30.3842 15.7346 35.547C15.1854 40.4927 17.0668 44.5618 21.6488 47.3763C21.9675 47.5599 22.2118 47.6374 22.4458 47.6972C22.4355 47.6794 22.3985 47.6987 22.486 47.8242C26.9196 49.9998 31.1259 49.7389 35.3245 47.4359C36.0798 47.0216 37.2341 47.291 38.2041 47.2447Z" fill="#0C52A2"/>
<path d="M47.3238 49.3411C46.5083 49.5315 45.6018 49.5296 45.2321 49.9605C40.9864 54.9095 35.6706 57.5032 28.9583 57.6573C22.332 57.8094 16.8395 55.6307 12.3854 50.94C11.5861 50.0983 10.8021 49.156 10.3484 48.1211C10.0005 47.3273 10.1837 46.3147 10.1307 45.3994C11.0179 45.7464 12.3297 45.8476 12.7205 46.482C14.6483 49.6118 17.3846 51.8196 20.7273 53.2174C27.2105 55.9285 33.476 55.3744 39.3034 51.3982C42.5672 49.1712 44.7846 46.1789 45.9493 42.4632C46.2668 41.4502 46.6274 40.5041 48.0697 40.6399C49.604 40.7844 49.2357 41.8896 49.3794 42.7944C49.6135 44.2682 49.9745 45.7239 50.1816 47.2005C50.4654 49.2242 49.5341 49.9362 47.3238 49.3411Z" fill="#0950A2"/>
<path d="M23.3782 16.6199C32.6676 14.8274 41.7824 17.8574 46.842 26.1049C47.1804 26.6565 46.7178 27.67 46.6277 28.4687C45.7935 28.133 44.5893 28.0282 44.1875 27.4228C42.1382 24.3353 39.4421 21.9618 36.0208 20.5489C29.5605 17.881 23.344 18.4164 17.5321 22.4243C14.1279 24.7718 11.9194 27.8677 10.7237 31.7463C10.5357 32.356 9.44687 32.7046 8.77459 33.1739C8.34936 32.5931 7.71998 32.0656 7.54051 31.4205C7.14106 29.9847 6.98159 28.4873 6.69704 27.02C6.27274 24.832 7.10806 24.0838 9.40439 24.4456C10.0632 24.5493 11.129 24.4838 11.4351 24.0837C14.4233 20.1785 18.4451 17.8831 23.3782 16.6199Z" fill="#0950A2"/>
<path d="M38.2541 47.1308C37.2341 47.291 36.0798 47.0216 35.3245 47.4359C31.1259 49.7389 26.9196 49.9998 22.6862 47.8027C23.5778 47.6626 24.3565 47.6739 25.1352 47.6757C32.3979 47.6919 38.2634 42.9335 39.3753 35.9972C39.6338 34.3844 39.5031 32.713 39.5515 31.0685C42.0988 35.1806 41.5987 39.2363 39.4438 43.3363C39.0297 44.1241 39.1288 45.1654 39.0336 46.2399C38.8188 46.5989 38.5614 46.8079 38.2541 47.1308Z" fill="#F3CE54"/>
<path d="M39.5414 31.0866C39.5031 32.713 39.6338 34.3844 39.3753 35.9972C38.2634 42.9335 32.3979 47.6919 25.1352 47.6757C24.3565 47.6739 23.5778 47.6626 22.5988 47.6772C22.3985 47.6987 22.4355 47.6794 22.3612 47.6035C22.0494 47.4418 21.8119 47.356 21.5744 47.2702C17.0668 44.5618 15.1854 40.4927 15.7346 35.547C16.3079 30.3842 19.3358 26.7615 24.4679 25.1449C29.5942 23.5301 34.1072 24.8153 37.8702 28.5403C38.3128 28.9784 38.6542 29.5127 39.098 30.2611C39.2916 30.7213 39.4299 30.923 39.5681 31.1247C39.5681 31.1247 39.5313 31.1046 39.5414 31.0866ZM30.4105 44.0412C32.6782 42.8516 33.0371 40.8565 32.5725 38.701C32.1162 36.5842 30.5084 35.7742 28.3466 35.5779C27.7698 35.5256 26.9206 34.6464 26.8427 34.0654C26.7595 33.4438 27.3784 32.2126 27.8002 32.1653C28.5095 32.0859 29.3231 32.7 30.0594 33.0828C30.7058 33.419 31.3064 33.8383 31.9272 34.2208C32.0801 33.4249 32.6366 32.3808 32.3091 31.8805C31.3893 30.4754 30.1523 29.2477 28.9148 28.0747C28.7251 27.8948 27.8026 28.2781 27.344 28.5796C26.9726 28.8238 26.8832 29.4986 26.507 29.7037C24.1767 30.9744 23.7858 32.998 24.3072 35.2317C24.803 37.3556 26.4957 38.0555 28.6153 38.2805C29.1656 38.3389 29.97 39.3257 30.0011 39.9185C30.033 40.5249 29.3656 41.5433 28.8068 41.6944C28.2568 41.843 27.44 41.1613 26.7754 40.7856C26.1428 40.428 25.5555 39.9951 24.9483 39.5954C24.7841 40.3875 24.2397 41.3721 24.5397 41.9292C25.0658 42.9063 26.1587 43.5807 26.9266 44.4543C28.6895 46.4598 28.7426 46.4721 30.4105 44.0412Z" fill="#FDED91"/>
<path d="M39.5683 30.9969C39.4299 30.923 39.2917 30.7213 39.1321 30.3973C39.2633 30.4731 39.4159 30.6711 39.5683 30.9969Z" fill="#F3CE54"/>
<path d="M21.6487 47.3763C21.8119 47.356 22.0494 47.4418 22.3715 47.6212C22.2118 47.6374 21.9674 47.5599 21.6487 47.3763Z" fill="#F3CE54"/>
<path d="M30.2819 44.128C28.7426 46.4721 28.6895 46.4597 26.9266 44.4543C26.1587 43.5807 25.0658 42.9063 24.5397 41.9292C24.2397 41.3721 24.7841 40.3875 24.9483 39.5954C25.5555 39.9951 26.1428 40.428 26.7754 40.7856C27.4401 41.1613 28.2568 41.843 28.8068 41.6944C29.3657 41.5433 30.033 40.5249 30.0012 39.9185C29.97 39.3257 29.1656 38.3389 28.6153 38.2805C26.4957 38.0555 24.803 37.3556 24.3072 35.2317C23.7858 32.998 24.1768 30.9744 26.5071 29.7037C26.8832 29.4986 26.9726 28.8238 27.344 28.5796C27.8026 28.2781 28.7251 27.8948 28.9148 28.0747C30.1523 29.2478 31.3893 30.4754 32.3091 31.8805C32.6366 32.3808 32.0802 33.4249 31.9272 34.2208C31.3064 33.8383 30.7058 33.419 30.0594 33.0828C29.3231 32.7 28.5095 32.0859 27.8002 32.1653C27.3784 32.2126 26.7595 33.4438 26.8428 34.0654C26.9206 34.6464 27.7698 35.5256 28.3467 35.5779C30.5085 35.7742 32.1162 36.5842 32.5725 38.701C33.0371 40.8565 32.6783 42.8516 30.2819 44.128Z" fill="#FFFEFB"/>
</svg>
