<svg width="51" height="66" viewBox="0 0 51 66" fill="none" xmlns="http://www.w3.org/2000/svg">
<path d="M11.7076 32.2198C13.8033 27.9888 16.346 24.1153 20.3483 21.3338C21.1443 21.5954 21.7562 21.7849 22.3287 22.1041C21.9833 22.9025 21.594 23.5479 21.4055 24.2492C21.3072 24.6149 21.5628 25.0791 21.6586 25.4988C21.9985 25.3227 22.4915 25.236 22.6505 24.9541C23.1892 23.999 23.6097 22.9748 24.2352 21.9505C25.2581 21.9417 26.1212 21.9594 27.0135 22.103C27.5029 23.1658 27.9151 24.1327 28.4525 25.0211C28.611 25.2831 29.1233 25.3233 29.4735 25.4651C29.5596 25.0878 29.8011 24.66 29.7017 24.3431C29.4457 23.5273 29.0388 22.7607 28.8379 21.9491C29.3745 21.8995 29.7653 21.8751 30.2149 21.9696C34.6393 27.9372 37.438 34.4436 38.5152 41.7443C39.4536 48.1031 35.4958 53.0051 29.2181 53.0154C26.4328 53.02 23.6476 53.0163 20.8623 53.0164C19.7475 53.0164 18.6327 53.0164 17.9003 53.0164C17.4587 51.7393 17.0004 50.8779 16.8911 49.9728C16.7729 48.9935 16.7414 47.8739 17.0962 46.9924C17.8095 45.2205 17.7468 44.6904 15.999 43.8242C15.999 42.0407 15.999 40.2215 15.999 38.4644C17.2349 37.8819 18.0763 33.5403 17.2047 32.6699C16.9767 32.4421 16.5616 32.3305 16.2242 32.3105C15.5626 32.2714 14.8951 32.3342 14.0929 32.3344C13.2064 32.2826 12.457 32.2512 11.7076 32.2198ZM20.8037 43.3883C20.8037 43.3883 20.7907 43.3905 20.7973 43.6504C22.826 46.5719 26.3328 47.2353 28.9642 45.1954C31.7618 43.0267 32.1464 39.3549 29.7161 36.4773C27.4779 34.1929 24.6084 33.8686 22.1719 35.6248C19.8542 37.2954 19.1676 40.2012 20.4889 43.1821C20.5938 43.2553 20.6986 43.3285 20.8037 43.3883Z" fill="#3480D7"/>
<path d="M14.2301 32.3547C14.8951 32.3342 15.5626 32.2714 16.2242 32.3105C16.5616 32.3305 16.9767 32.4421 17.2047 32.6699C18.0763 33.5403 17.2349 37.8819 15.999 38.4644C15.999 40.2215 15.999 42.0407 15.999 43.8242C17.7468 44.6904 17.8095 45.2205 17.0962 46.9924C16.7414 47.8739 16.7729 48.9935 16.8911 49.9728C17.0004 50.8779 17.4587 51.7393 17.9003 53.0164C18.6327 53.0164 19.7475 53.0164 20.8623 53.0164C23.6476 53.0163 26.4328 53.02 29.2181 53.0154C35.4958 53.0051 39.4536 48.1031 38.5152 41.7443C37.438 34.4436 34.6393 27.9372 30.2598 21.8709C30.3642 21.5783 30.4824 21.5033 30.6006 21.4282C33.7956 23.2615 35.8595 26.1823 37.6802 29.2753C38.7503 31.0931 39.5486 33.0767 40.5087 35.244C40.774 36.033 40.9997 36.5637 41.2048 37.2174C41.3187 37.6313 41.4532 37.9222 41.579 38.3447C41.8031 39.1151 42.036 39.754 42.2584 40.5451C42.4987 41.8424 42.7496 42.9875 42.9831 44.2863C42.9941 44.9541 43.0225 45.4681 43.0249 46.1197C43.0163 46.5359 43.0338 46.8144 43.0246 47.2457C43.0005 47.9159 43.0031 48.4333 42.9276 49.0578C42.2891 50.3252 41.7287 51.4855 41.0499 52.6827C40.4204 53.4511 39.9092 54.1827 39.398 54.9142C38.0982 55.2716 36.8027 55.9178 35.4979 55.9378C28.7458 56.0412 21.9912 55.9876 15.2376 55.9741C14.8943 55.9734 14.5513 55.8361 14.0477 55.538C14.0292 54.3117 13.3298 53.1866 14.4997 52.2969C14.7658 52.0946 14.6158 50.9517 14.3245 50.4369C13.5828 49.1263 13.5764 48.0198 14.337 46.6713C14.8037 45.8441 15.3018 44.4946 13.4258 44.1802C13.259 44.2705 13.1878 44.3743 13.1299 44.4803C13.1432 44.4826 13.1366 44.4559 13.0099 44.4056C12.8653 42.3101 12.8476 40.2649 12.9766 38.2175C13.6079 37.9714 14.5083 37.7303 14.51 37.4828C14.5215 35.7742 14.3457 34.0643 14.2301 32.3547Z" fill="#0B51A2"/>
<path d="M13.5214 44.1937C15.3018 44.4946 14.8037 45.8441 14.337 46.6713C13.5764 48.0198 13.5828 49.1263 14.3245 50.4369C14.6158 50.9517 14.7658 52.0946 14.4997 52.2969C13.3298 53.1866 14.0292 54.3117 13.9157 55.464C13.2987 55.734 12.6533 55.8534 11.8574 55.8191C11.4413 55.3846 11.2064 54.9118 10.904 54.8619C10.2139 54.7478 9.49079 54.8409 8.78447 54.6992C8.93459 52.2032 6.95261 53.3681 5.89048 52.482C5.89048 53.5953 5.89048 54.3868 5.89048 55.1783C5.15798 54.9522 4.01307 55.9848 3.86598 54.2769C4.87348 53.9337 5.47556 53.6228 4.75516 52.6316C4.65069 52.3449 4.54623 52.0583 4.5902 51.6232C4.94134 50.9524 5.14406 50.43 5.34677 49.9076C4.99827 49.9431 4.64976 49.9787 4.30125 50.0142C4.10601 49.6245 3.91076 49.2347 3.85943 48.6833C4.73035 48.1213 5.49617 47.7377 4.75516 46.7071C4.63771 45.1171 3.91307 43.7959 3.14052 42.4148C3.64054 41.9923 3.98511 41.7198 4.32968 41.4474C3.98617 41.1129 3.64266 40.7784 3.29914 40.444C3.19496 40.2671 3.09078 40.0902 3.13115 39.7743C3.65617 39.1449 4.03663 38.6546 4.4171 38.1644C4.42478 37.6428 4.43245 37.1212 4.59556 36.4699C5.09556 36.0678 5.44013 35.7953 5.78471 35.5228C5.44119 35.1884 5.09768 34.8539 4.75416 34.5194C4.64947 34.2282 4.54478 33.9369 4.58847 33.5105C4.99918 33.0317 5.26151 32.6879 5.52384 32.3441C5.79823 32.3261 6.07261 32.3081 6.48177 32.4851C6.61602 33.1659 6.61504 33.6517 6.61505 34.1375C6.61509 37.1296 6.61516 37.1296 9.52424 37.2059C10.138 37.7546 10.7403 38.1695 11.3255 38.7014C11.1976 39.1124 11.0867 39.4065 10.842 39.7549C9.82327 39.8856 8.93844 39.9621 8.05705 39.8904C8.20982 37.7814 6.55564 38.1324 5.57262 37.5363C4.24663 41.4551 5.00315 43.0421 8.06238 43.0128C8.06994 43.0205 8.08507 43.036 8.08045 43.1702C8.07956 43.5735 8.08329 43.8424 7.94204 44.1188C7.42157 44.4794 7.04608 44.8325 6.67059 45.1857C7.07476 45.4495 7.44936 45.8322 7.89084 45.9459C8.39969 46.077 8.96758 45.9706 9.51747 45.9751C9.52512 45.9828 9.54043 45.9982 9.54815 46.1373C10.3678 46.6915 11.1796 47.1066 12.2687 47.6633C12.3444 46.6688 12.3844 46.1437 12.5253 45.5547C12.7964 45.1459 12.9665 44.8009 13.1366 44.4559C13.1366 44.4559 13.1432 44.4826 13.206 44.4464C13.3666 44.3546 13.4509 44.2824 13.5214 44.1937ZM9.54821 52.1854C10.3429 52.485 11.1302 52.8124 11.9451 53.0355C12.0158 53.0549 12.2683 52.3863 12.4989 51.9075C11.289 51.9075 10.407 51.9075 9.52499 51.6022C9.51952 51.0935 9.51405 50.5848 9.80869 50.0641C10.4447 49.8931 11.0807 49.7222 11.7168 49.5513C11.6662 49.3492 11.6157 49.1472 11.5651 48.9452C10.6426 48.9452 9.7201 48.9452 8.79645 48.6412C8.92748 46.3279 6.96937 47.4273 6.03522 46.6779C5.85874 48.9421 5.85874 48.9421 8.79805 49.2183C8.80354 49.4908 8.80904 49.7634 8.50504 50.0456C7.89129 50.3466 7.27753 50.6476 6.66378 50.9486C7.25693 51.2681 7.83034 51.6391 8.45151 51.8853C8.76472 52.0094 9.1645 51.9073 9.54821 52.1854Z" fill="#FFC008"/>
<path d="M20.5015 17.47C19.7119 15.2293 18.9224 12.9886 18.0849 10.6118C20.7953 9.92924 23.2647 9.44471 25.7944 11.2761C27.2549 12.6918 28.7439 12.8286 30.3305 12.2347C31.1678 11.9213 31.97 11.5106 32.788 11.1438C32.0639 13.1564 31.3398 15.1689 30.4228 17.3329C26.987 17.4795 23.7442 17.4747 20.5015 17.47Z" fill="#3480D6"/>
<path d="M11.3426 38.5845C10.7403 38.1695 10.138 37.7546 9.52838 37.0558C9.51695 36.2688 9.51289 35.7656 9.66828 35.2568C10.6846 35.018 11.9451 35.8085 12.4552 34.1161C11.3595 34.1161 10.4342 34.1161 9.51301 33.9684C9.5187 33.3281 9.5202 32.8355 9.5217 32.343C10.1473 32.3197 10.7729 32.2965 11.553 32.2466C12.457 32.2512 13.2064 32.2826 14.0929 32.3344C14.3457 34.0643 14.5215 35.7742 14.51 37.4828C14.5083 37.7303 13.6079 37.9714 12.8474 38.2193C12.1618 38.3436 11.7522 38.464 11.3426 38.5845Z" fill="#FDBE0A"/>
<path d="M41.5877 38.2132C41.4532 37.9222 41.3187 37.6313 41.3518 37.2173C42.0108 37.0937 42.502 37.0933 43.1493 37.0997C44.571 37.0969 46.0671 37.4329 45.9179 35.3015C46.5718 35.3015 47.2256 35.3015 47.9799 35.3015C47.9799 36.1569 47.9799 36.9935 47.9799 38.0012C47.6675 38.0858 47.247 38.1995 46.6301 38.3664C46.6301 40.1075 46.6301 41.927 46.631 44.0421C46.4069 44.6415 46.182 44.9453 45.9354 45.1111C45.4258 44.6915 44.9377 44.4099 44.4458 43.9822C44.4326 42.4489 44.4232 41.0617 44.4239 39.5258C44.1602 37.2788 42.5511 38.5642 41.5877 38.2132Z" fill="#FFA90A"/>
<path d="M45.957 45.2491C46.182 44.9453 46.4069 44.6415 46.6408 44.2121C47.0717 44.1191 47.4937 44.1517 48 44.1909C48 48.0633 48 51.9264 48 55.9718C47.3827 55.9718 46.8005 55.9718 46.0567 55.8102C45.8824 55.3787 45.8699 55.1089 45.8869 54.7233C45.9127 54.0759 45.9088 53.5444 45.9029 52.8706C45.8885 52.4439 45.8761 52.1595 45.8913 51.7589C45.9142 51.1121 45.9095 50.5814 45.9029 49.9084C45.8885 49.4816 45.8761 49.1973 45.8913 48.7967C45.9134 48.151 45.9079 47.6215 45.9009 46.9489C45.884 46.5191 45.8687 46.2324 45.8644 45.8287C45.9027 45.5575 45.9298 45.4033 45.957 45.2491Z" fill="#FFA20B"/>
<path d="M20.4731 17.6262C23.7442 17.4747 26.987 17.4795 30.3961 17.4744C30.5798 18.2181 30.5973 18.9717 30.4541 19.8225C27.0287 19.8409 23.7639 19.7622 20.4992 19.6834C20.481 19.0497 20.4628 18.4161 20.4731 17.6262Z" fill="#FBDE08"/>
<path d="M20.4728 19.8296C23.7639 19.7622 27.0287 19.8409 30.4279 19.9819C30.5772 20.4129 30.5919 20.7818 30.6037 21.2894C30.4824 21.5033 30.3642 21.5783 30.201 21.7521C29.7653 21.8751 29.3745 21.8995 28.6995 21.9243C27.9383 21.9421 27.4613 21.9596 26.9842 21.9771C26.1212 21.9594 25.2581 21.9417 24.0927 21.9259C23.3163 21.9433 22.8422 21.9588 22.3681 21.9744C21.7562 21.7849 21.1443 21.5954 20.459 21.2831C20.4058 20.7654 20.4261 20.3706 20.4728 19.8296Z" fill="#FEBF09"/>
<path d="M10.5078 23.3188C10.1321 23.9012 9.85582 24.3879 9.70106 24.6606C8.70905 23.7244 7.72947 22.8 6.79313 21.9163C7.65302 21.0945 8.62642 20.1642 9.53611 19.2948C10.3077 20.0466 11.305 21.0185 12.3429 22.0299C11.8305 22.3822 11.2188 22.8027 10.5078 23.3188Z" fill="#FF9700"/>
<path d="M39.9445 19.7848C39.4201 19.5085 39.0135 19.3069 38.6157 19.1097C39.6816 18.1073 40.6888 17.1602 41.5421 16.3577C42.3443 17.1206 43.3164 18.0452 44.2786 18.9603C43.4122 19.7673 42.4021 20.708 41.4018 21.6397C41.0791 21.2109 40.5707 20.5353 39.9445 19.7848Z" fill="#FBDF07"/>
<path d="M9.36214 32.3161C9.5202 32.8355 9.5187 33.3281 9.42907 34.0199C9.3969 34.5668 9.45286 34.9146 9.50883 35.2623C9.51289 35.7656 9.51695 36.2688 9.51687 36.9221C6.61516 37.1296 6.61509 37.1296 6.61505 34.1375C6.61504 33.6517 6.61602 33.1659 6.61728 32.5121C7.47954 32.3258 8.34106 32.3075 9.36214 32.3161Z" fill="#FBDE08"/>
<path d="M32.7822 11.0043C31.97 11.5106 31.1678 11.9213 30.3305 12.2347C28.7439 12.8286 27.2549 12.6918 25.9154 11.3358C27.8958 9.74056 31.05 9.58004 32.7822 11.0043Z" fill="#36454C"/>
<path d="M45.8573 54.8392C45.8699 55.1089 45.8824 55.3787 45.8957 55.7835C43.8198 55.6137 41.7432 55.3088 39.5323 54.959C39.9092 54.1827 40.4204 53.4511 41.1561 52.7688C41.9227 52.888 42.4647 52.9579 43.0019 53.1814C42.9559 55.7961 44.7845 54.573 45.8573 54.8392Z" fill="#FFC008"/>
<path d="M6.04242 55.2056C5.89048 54.3868 5.89048 53.5953 5.89048 52.482C6.95261 53.3681 8.93459 52.2032 8.69112 54.7503C8.41089 55.06 8.22739 55.1678 8.04388 55.2756C7.42738 55.2613 6.81087 55.2471 6.04242 55.2056Z" fill="#FBDE08"/>
<path d="M45.756 35.2763C46.0671 37.4329 44.571 37.0969 43.148 36.9507C42.9921 36.2979 42.9935 35.8011 42.995 35.3043C43.8613 35.2866 44.7277 35.2688 45.756 35.2763Z" fill="#FBDE08"/>
<path d="M42.8412 35.277C42.9935 35.8011 42.9921 36.2979 42.9919 36.9438C42.502 37.0933 42.0108 37.0937 41.3725 37.0943C40.9997 36.5637 40.774 36.033 40.5409 35.3781C41.2515 35.2525 41.9695 35.2511 42.8412 35.277Z" fill="#FABE0C"/>
<path d="M8.10999 55.4066C8.22739 55.1678 8.41089 55.06 8.68775 54.901C9.49079 54.8409 10.2139 54.7478 10.904 54.8619C11.2064 54.9118 11.4413 55.3846 11.7091 55.7921C10.5329 55.7918 9.35452 55.6647 8.10999 55.4066Z" fill="#FFA10B"/>
<path d="M3.2705 40.5785C3.64266 40.7784 3.98617 41.1129 4.32968 41.4474C3.98511 41.7198 3.64054 41.9923 3.16699 42.2724C3.10597 41.7578 3.17392 41.2354 3.2705 40.5785Z" fill="#FFC008"/>
<path d="M4.72552 34.654C5.09768 34.8539 5.44119 35.1884 5.78471 35.5228C5.44013 35.7953 5.09556 36.0678 4.62202 36.3479C4.56099 35.8333 4.62894 35.3109 4.72552 34.654Z" fill="#FFC008"/>
<path d="M4.35862 50.1298C4.64976 49.9787 4.99827 49.9431 5.34677 49.9076C5.14406 50.43 4.94134 50.9524 4.61584 51.506C4.46736 51.1066 4.44167 50.676 4.35862 50.1298Z" fill="#FFC008"/>
<path d="M4.63286 46.7637C5.49617 47.7377 4.73035 48.1213 3.88444 48.5482C4.01388 47.99 4.26222 47.4051 4.63286 46.7637Z" fill="#FFC008"/>
<path d="M4.63597 52.6851C5.47556 53.6228 4.87348 53.9337 3.89223 54.122C4.01595 53.6657 4.26636 53.2021 4.63597 52.6851Z" fill="#FFC008"/>
<path d="M4.26783 38.183C4.03663 38.6547 3.65617 39.1449 3.15687 39.6617C2.87367 38.7975 2.83346 38.0004 4.26783 38.183Z" fill="#FFC008"/>
<path d="M5.38243 32.3172C5.26151 32.6879 4.99918 33.0317 4.61495 33.3844C4.74237 33.0257 4.9917 32.6581 5.38243 32.3172Z" fill="#FFC008"/>
<path d="M20.4328 42.985C19.1676 40.2012 19.8542 37.2954 22.1719 35.6248C24.6084 33.8686 27.4779 34.1929 29.785 36.7446C29.9541 39.2138 29.8034 41.3134 27.6681 42.4586C27.7769 40.8467 27.0702 40.04 25.703 39.6485C25.3849 39.5574 25.1879 39.0279 24.9352 38.7002C25.2875 38.6177 25.6394 38.4711 25.9921 38.4693C26.4076 38.4672 26.8237 38.5904 27.2395 38.6593C27.0641 38.1418 26.9335 37.6022 26.7006 37.113C26.4698 36.6284 26.136 36.1946 25.7627 35.6046C25.1637 36.2806 24.9027 36.5885 24.6279 36.883C22.6929 38.9568 22.904 39.9878 25.4422 41.2153C25.7475 41.3629 25.8758 41.8898 26.0861 42.241C25.721 42.2762 25.3455 42.3807 24.9938 42.3264C24.6732 42.2769 24.3784 42.0551 24.0722 41.9092C23.9103 42.0291 23.7484 42.1489 23.5865 42.2688C23.9436 42.8672 24.3008 43.4655 24.5148 44.0783C23.178 43.8586 21.9843 43.6246 20.7907 43.3905C20.7907 43.3905 20.8037 43.3883 20.7843 43.2949C20.6542 43.1293 20.5435 43.0572 20.4328 42.985Z" fill="#E5E6E8"/>
<path d="M27.6561 42.5992C29.8034 41.3134 29.9541 39.2138 29.8554 36.843C32.1464 39.3549 31.7618 43.0267 28.9642 45.1954C26.3328 47.2353 22.8259 46.5719 20.794 43.5205C21.9843 43.6246 23.178 43.8586 24.5937 44.1838C25.2558 44.3142 25.8475 44.5541 26.1054 44.3521C26.7076 43.8807 27.1494 43.197 27.6561 42.5992Z" fill="#9F9497"/>
<path d="M22.3287 22.1041C22.8422 21.9588 23.3163 21.9433 23.9328 21.9523C23.6097 22.9748 23.1892 23.999 22.6505 24.9541C22.4915 25.236 21.9985 25.3227 21.6586 25.4988C21.5628 25.0791 21.3072 24.6149 21.4055 24.2492C21.594 23.5479 21.9833 22.9025 22.3287 22.1041Z" fill="#364B58"/>
<path d="M27.0135 22.103C27.4613 21.9596 27.9384 21.9421 28.5538 21.9495C29.0388 22.7607 29.4457 23.5273 29.7017 24.3431C29.8011 24.66 29.5596 25.0878 29.4735 25.4651C29.1233 25.3233 28.611 25.2831 28.4525 25.0211C27.9151 24.1327 27.5029 23.1658 27.0135 22.103Z" fill="#364B58"/>
<path d="M20.4609 43.0835C20.5435 43.0572 20.6542 43.1293 20.7842 43.3016C20.6986 43.3285 20.5938 43.2553 20.4609 43.0835Z" fill="#9F9497"/>
<path d="M11.3255 38.7014C11.7522 38.464 12.1618 38.3436 12.7006 38.2214C12.8476 40.2648 12.8653 42.3101 13.0099 44.4056C12.9665 44.8009 12.7964 45.1459 12.3934 45.6112C11.2872 45.8204 10.4138 45.9093 9.54043 45.9982C9.54043 45.9982 9.52512 45.9828 9.52236 45.8244C9.51594 45.1612 9.51227 44.6564 9.64493 44.1438C10.1906 43.9137 10.5999 43.6913 11.0092 43.469C10.9537 43.3246 10.8982 43.1803 10.8427 43.036C9.9235 43.036 9.00429 43.036 8.08507 43.036C8.08507 43.036 8.06995 43.0205 8.06727 42.8621C8.06093 42.1987 8.05726 41.6938 8.21427 41.183C9.38105 40.9389 11.0435 41.8987 10.9759 39.7006C11.0867 39.4065 11.1976 39.1124 11.3255 38.7014Z" fill="#FFC008"/>
<path d="M43.0067 53.0278C42.4647 52.9579 41.9227 52.888 41.2745 52.732C41.7287 51.4855 42.2891 50.3252 43.0873 49.0571C44.1713 48.9373 45.0175 48.9251 45.8637 48.9129C45.8761 49.1973 45.8885 49.4816 45.7417 49.9088C44.7166 50.2978 43.1238 49.4205 43.1295 50.9431C43.1358 52.6313 44.7818 51.631 45.6856 51.8827C45.7402 51.8979 45.8041 51.8785 45.8637 51.8751C45.8761 52.1595 45.8885 52.4439 45.7413 52.871C44.7233 53.0184 43.865 53.0231 43.0067 53.0278Z" fill="#FEBC09"/>
<path d="M44.4139 39.6745C44.4232 41.0617 44.4326 42.4489 44.3008 43.9841C43.7732 44.1323 43.3869 44.1325 43.0005 44.1326C42.7496 42.9875 42.4987 41.8424 42.3571 40.4676C43.1156 40.0501 43.7647 39.8623 44.4139 39.6745Z" fill="#FBCB0A"/>
<path d="M45.8913 48.7967C45.0175 48.9251 44.1713 48.9373 43.1654 48.9501C43.0031 48.4333 43.0005 47.9159 43.1822 47.2456C44.2118 47.0924 45.0571 47.0922 45.9024 47.0919C45.9079 47.6215 45.9134 48.151 45.8913 48.7967Z" fill="#FCDA08"/>
<path d="M42.9831 44.2863C43.3869 44.1325 43.7732 44.1323 44.3046 44.1302C44.9377 44.4099 45.4258 44.6915 45.9354 45.1111C45.9298 45.4033 45.9027 45.5575 45.711 45.8381C44.7146 45.9703 43.8828 45.9762 43.051 45.9821C43.0226 45.4681 42.9941 44.9541 42.9831 44.2863Z" fill="#FBDE08"/>
<path d="M44.4239 39.5258C43.7647 39.8623 43.1156 40.0501 42.3677 40.3154C42.036 39.754 41.8031 39.1151 41.579 38.3447C42.5511 38.5642 44.1602 37.2788 44.4239 39.5258Z" fill="#F7DC0B"/>
<path d="M43.0249 46.1197C43.8828 45.9762 44.7146 45.9703 45.7 45.9551C45.8687 46.2324 45.884 46.5191 45.9009 46.9489C45.0571 47.0922 44.2118 47.0924 43.2088 47.0928C43.0338 46.8144 43.0163 46.5359 43.0249 46.1197Z" fill="#FFC008"/>
<path d="M13.4258 44.1802C13.4509 44.2824 13.3666 44.3546 13.1926 44.4441C13.1878 44.3743 13.259 44.2705 13.4258 44.1802Z" fill="#FFC008"/>
<path d="M8.0536 41.1889C8.05726 41.6938 8.06093 42.1987 8.0597 42.8544C5.00315 43.0421 4.24663 41.4551 5.57262 37.5363C6.55564 38.1324 8.20982 37.7814 7.97328 39.9425C7.9419 40.4914 7.99775 40.8402 8.0536 41.1889Z" fill="#FBDE08"/>
<path d="M8.79762 48.9452C5.85874 48.9421 5.85874 48.9421 6.03522 46.6779C6.96937 47.4273 8.92748 46.3279 8.79697 48.7932C8.79749 48.9451 8.79762 48.9452 8.79762 48.9452Z" fill="#FBDE08"/>
<path d="M9.50859 50.0761C9.51405 50.5848 9.51952 51.0935 9.52499 51.7548C9.525 51.9073 9.52513 51.9074 9.52513 51.9074C9.1645 51.9073 8.76472 52.0094 8.45151 51.8853C7.83034 51.6391 7.25693 51.2681 6.66378 50.9486C7.27753 50.6476 7.89129 50.3466 8.77533 50.0483C9.19994 50.0594 9.35426 50.0677 9.50859 50.0761Z" fill="#FBDE08"/>
<path d="M9.5086 44.1516C9.51227 44.6564 9.51594 45.1612 9.51472 45.8167C8.96758 45.9706 8.39969 46.077 7.89084 45.9459C7.44936 45.8322 7.07476 45.4495 6.67059 45.1857C7.04608 44.8325 7.42157 44.4794 8.08395 44.1254C8.7501 44.1335 9.12935 44.1426 9.5086 44.1516Z" fill="#FBDE08"/>
<path d="M8.21427 41.183C7.99775 40.8402 7.9419 40.4914 7.96983 40.0906C8.93844 39.9621 9.82327 39.8856 10.842 39.7549C11.0435 41.8987 9.38105 40.9389 8.21427 41.183Z" fill="#FFA10B"/>
<path d="M9.54815 46.1373C10.4138 45.9093 11.2872 45.8204 12.2925 45.675C12.3844 46.1437 12.3444 46.6688 12.2687 47.6633C11.1796 47.1066 10.3678 46.6915 9.54815 46.1373Z" fill="#FFA10B"/>
<path d="M9.52513 51.9074C10.4071 51.9075 11.289 51.9075 12.4989 51.9075C12.2683 52.3863 12.0158 53.0549 11.9451 53.0355C11.1302 52.8124 10.3429 52.485 9.53667 52.0464C9.52513 51.9074 9.52513 51.9074 9.52513 51.9074Z" fill="#FFA10B"/>
<path d="M9.65864 50.0701C9.35426 50.0677 9.19994 50.0594 8.93008 50.0435C8.80904 49.7634 8.80354 49.4908 8.79783 49.0817C8.79762 48.9452 8.79762 48.9452 8.79762 48.9452C9.72018 48.9452 10.6426 48.9452 11.5651 48.9452C11.6157 49.1472 11.6662 49.3492 11.7168 49.5513C11.0807 49.7222 10.4447 49.8931 9.65864 50.0701Z" fill="#FFA10B"/>
<path d="M9.64493 44.1438C9.12935 44.1426 8.7501 44.1335 8.22894 44.1179C8.08329 43.8424 8.07956 43.5735 8.08045 43.1702C9.00429 43.036 9.9235 43.036 10.8427 43.036C10.8982 43.1803 10.9537 43.3246 11.0092 43.469C10.5999 43.6913 10.1906 43.9137 9.64493 44.1438Z" fill="#FFA10B"/>
<path d="M9.66828 35.2568C9.45286 34.9146 9.3969 34.5668 9.42488 34.1676C10.4342 34.1161 11.3595 34.1161 12.4552 34.1161C11.9451 35.8085 10.6846 35.018 9.66828 35.2568Z" fill="#FFA10B"/>
<path d="M43.0019 53.1814C43.865 53.0231 44.7233 53.0185 45.7433 53.0134C45.9088 53.5444 45.9127 54.0759 45.8869 54.7233C44.7845 54.573 42.9559 55.7961 43.0019 53.1814Z" fill="#FCDA08"/>
<path d="M45.8913 51.7589C45.8041 51.8785 45.7402 51.8979 45.6856 51.8827C44.7818 51.631 43.1358 52.6313 43.1295 50.9431C43.1238 49.4205 44.7166 50.2978 45.7437 50.0511C45.9095 50.5814 45.9142 51.1121 45.8913 51.7589Z" fill="#FCDA08"/>
<path d="M27.6681 42.4586C27.1494 43.197 26.7076 43.8807 26.1054 44.3521C25.8475 44.5541 25.2558 44.3142 24.7368 44.1694C24.3007 43.4655 23.9436 42.8672 23.5865 42.2688C23.7484 42.1489 23.9103 42.0291 24.0722 41.9092C24.3784 42.0551 24.6732 42.2769 24.9938 42.3264C25.3455 42.3807 25.721 42.2762 26.0861 42.241C25.8758 41.8898 25.7475 41.3629 25.4422 41.2153C22.904 39.9878 22.6929 38.9568 24.6279 36.883C24.9027 36.5885 25.1637 36.2806 25.7627 35.6046C26.136 36.1946 26.4698 36.6284 26.7006 37.113C26.9335 37.6022 27.0641 38.1418 27.2395 38.6593C26.8237 38.5904 26.4076 38.4672 25.9921 38.4693C25.6394 38.4711 25.2875 38.6177 24.9352 38.7002C25.1879 39.0279 25.3849 39.5574 25.703 39.6485C27.0702 40.04 27.7769 40.8467 27.6681 42.4586Z" fill="#3D85D8"/>
</svg>
