<svg width="36" height="50" viewBox="0 0 36 50" fill="none" xmlns="http://www.w3.org/2000/svg">
<path d="M0.39566 0.882599H35.2501C35.2501 3.3529 33.2475 5.35547 30.7772 5.35547H4.86853C2.39824 5.35547 0.39566 3.3529 0.39566 0.882599Z" fill="#0950A2"/>
<path d="M35.2501 49.3387L0.395657 49.3387C0.395657 46.8684 2.39823 44.8659 4.86853 44.8659H30.7772C33.2475 44.8659 35.2501 46.8684 35.2501 49.3387Z" fill="#0950A2"/>
<line x1="3.94598" y1="3.86451" x2="3.94598" y2="45.6113" stroke="#0950A2" stroke-width="2"/>
<line x1="3.94598" y1="3.86451" x2="3.94598" y2="45.6113" stroke="#0950A2" stroke-width="2"/>
<line x1="31.6279" y1="3.86451" x2="31.6279" y2="45.6113" stroke="#0950A2" stroke-width="2"/>
<line x1="31.6279" y1="3.86451" x2="31.6279" y2="45.6113" stroke="#0950A2" stroke-width="2"/>
<ellipse cx="18.2479" cy="30.7018" rx="1.70022" ry="1.49096" fill="#DBBA6B"/>
<path d="M8.89676 5.35547H27.5991V16.1322C27.5991 21.2967 23.4125 25.4834 18.2479 25.4834C13.0834 25.4834 8.89676 21.2967 8.89676 16.1322V5.35547Z" fill="#DFEBF9"/>
<ellipse cx="18.2479" cy="35.9201" rx="0.850108" ry="0.745479" fill="#DBBA6B"/>
<path fill-rule="evenodd" clip-rule="evenodd" d="M27.5991 5.35547H8.89676V16.1322C8.89676 21.2967 13.0834 25.4834 18.2479 25.4834C19.1321 25.4834 19.9875 25.3607 20.7982 25.1314C16.8733 24.0213 13.9974 20.4126 13.9974 16.1322V5.35547L27.5991 5.35547Z" fill="#BDD7F5"/>
<path d="M27.5991 44.8659H8.89676V34.0891C8.89676 28.9246 13.0834 24.7379 18.2479 24.7379C23.4125 24.7379 27.5991 28.9246 27.5991 34.0891V44.8659Z" fill="#DEEDFF"/>
<path fill-rule="evenodd" clip-rule="evenodd" d="M14.1357 44.8659C14.4972 42.7494 16.3404 41.1385 18.56 41.1385C20.7795 41.1385 22.6227 42.7494 22.9843 44.8659H14.1357Z" fill="#DBBA6B"/>
<path fill-rule="evenodd" clip-rule="evenodd" d="M13.9974 44.8659H8.89676L8.89676 34.0891C8.89676 28.9246 13.0834 24.7379 18.2479 24.7379C19.1321 24.7379 19.9875 24.8606 20.7983 25.0899C16.8733 26.2 13.9974 29.8087 13.9974 34.0891L13.9974 44.8659Z" fill="#BDD7F5"/>
<path fill-rule="evenodd" clip-rule="evenodd" d="M25.6455 22.5015C24.1139 24.3246 21.8171 25.4834 19.2497 25.4834H17.2461C14.6787 25.4834 12.3819 24.3246 10.8503 22.5015L25.6455 22.5015Z" fill="#DBBA6B"/>
</svg>
