<svg width="41" height="51" viewBox="0 0 41 51" fill="none" xmlns="http://www.w3.org/2000/svg">
<g clip-path="url(#clip0_23_311)">
<path d="M23.7949 2.36571C29.8806 4.67761 35.5859 9.68674 38.6287 17.0078" stroke="#0950A2" stroke-width="3" stroke-linecap="round"/>
<path d="M33.6841 48.6038H7.05939C4.32857 48.6038 2.11481 46.3612 2.11481 43.5947V7.37484C2.11481 4.60837 4.32857 2.36571 7.05939 2.36571H21.8932C24.2039 2.36571 26.077 4.26334 26.077 6.6042C26.077 11.0731 29.6531 14.6959 34.0644 14.6959H34.2546C36.6703 14.6959 38.6287 16.6798 38.6287 19.127V43.5947C38.6287 46.3612 36.4149 48.6038 33.6841 48.6038Z" fill="white" stroke="#0950A2" stroke-width="3"/>
<path d="M9.72186 20.0903H30.2609" stroke="#0950A2" stroke-width="3" stroke-linecap="round"/>
<path d="M9.72186 26.2554H30.2609" stroke="#0950A2" stroke-width="3" stroke-linecap="round"/>
<path d="M9.72186 32.4205H30.2609" stroke="#0950A2" stroke-width="3" stroke-linecap="round"/>
<path d="M9.72186 38.5856H30.2609" stroke="#0950A2" stroke-width="3" stroke-linecap="round"/>
<path d="M10.3532 7.35942V12.7693H9.05243V7.35942H10.3532ZM12.6804 11.6904H14.9777V12.7693H11.2046V11.7675L13.4867 8.43831H11.2046V7.35942H14.9777V8.36125L12.6804 11.6904ZM17.1283 7.35942V12.7693H15.8275V7.35942H17.1283ZM22.8482 12.7693H21.5474L19.3718 9.43243V12.7693H18.071V7.35942H19.3718L21.5474 10.7117V7.35942H22.8482V12.7693Z" fill="#0950A2"/>
</g>
<defs>
<clipPath id="clip0_23_311">
<rect width="40.3174" height="50.0913" fill="white" transform="translate(0.213043 0.439117)"/>
</clipPath>
</defs>
</svg>
