<svg width="33" height="33" viewBox="0 0 33 33" fill="none" xmlns="http://www.w3.org/2000/svg">
<circle cx="16.5" cy="16.5" r="16.5" fill="#FFCDD2"/>
<circle cx="16.5" cy="16.5" r="16.5" fill="#FFCDD2"/>
<path fill-rule="evenodd" clip-rule="evenodd" d="M18.0532 9.34886V23.6511C17.3901 23.8778 16.6841 24 15.9515 24C12.1123 24 9 20.6421 9 16.5C9 12.3579 12.1123 9 15.9515 9C16.6841 9 17.3901 9.12224 18.0532 9.34886Z" fill="#DC3545"/>
<path d="M12 16.5C12 15.1193 13.1193 14 14.5 14H19.5C20.8807 14 22 15.1193 22 16.5C22 17.8807 20.8807 19 19.5 19H14.5C13.1193 19 12 17.8807 12 16.5Z" fill="white"/>
<path d="M22.9333 15.7C23.4667 16.1 23.4667 16.9 22.9333 17.3L19.6 19.8C18.9408 20.2944 18 19.824 18 19V16.5V14C18 13.176 18.9408 12.7056 19.6 13.2L22.9333 15.7Z" fill="#DC3545"/>
</svg>
